<?xml version="1.0" standalone="no"?>
<!DOCTYPE svg PUBLIC "-//W3C//DTD SVG 1.1//EN" "http://www.w3.org/Graphics/SVG/1.1/DTD/svg11.dtd" >
<svg xmlns="http://www.w3.org/2000/svg">
<metadata>
This is a custom SVG webfont generated by Font Squirrel.
Foundry     : Jos Buivenga
</metadata>
<defs>
<font id="webfontbDLwwwpQ" horiz-adv-x="500" >
<font-face units-per-em="1000" ascent="756" descent="-244" />
<missing-glyph horiz-adv-x="270" />
<glyph unicode=" "  horiz-adv-x="270" />
<glyph unicode="&#x09;" horiz-adv-x="270" />
<glyph unicode="&#xa0;" horiz-adv-x="270" />
<glyph unicode="!" horiz-adv-x="264" d="M197 50q0 -26 -17.5 -44.5t-42.5 -18.5t-42.5 18.5t-17.5 44.5q0 25 17.5 43t42.5 18t42.5 -18t17.5 -43zM185 756l-15 -566l-67 -10l-13 474l-13 89z" />
<glyph unicode="&#x22;" horiz-adv-x="392" d="M89 543l-18 112l90 16l-1 -244l-73 -1zM249 543l-18 112l90 16l-1 -244l-73 -1z" />
<glyph unicode="#" horiz-adv-x="704" d="M622 184h-148l-19 -184h-77l19 184h-146l-19 -184h-77l19 184h-145v64h152l20 186h-144v64h151l17 160h76l-17 -160h146l17 160h77l-17 -160h150l-8 -64h-148l-20 -186h149zM404 248l20 186h-146l-20 -186h146z" />
<glyph unicode="$" horiz-adv-x="480" d="M271 755v-86q77 -5 143 -46l-26 -78q-2 3 -16.5 12.5t-43 20.5t-57.5 15v-215l48 -26t42 -28t39.5 -37.5t23.5 -45.5t11 -60q0 -78 -44.5 -129t-119.5 -62v-84h-52v82q-31 1 -59 9t-46.5 18t-32.5 20.5t-20.5 17t-5.5 7.5l9 82q7 -8 20.5 -20.5t54 -35t80.5 -26.5v236 q-33 18 -48 27t-42 28.5t-39.5 35.5t-23 41.5t-10.5 53.5q0 70 45.5 123t117.5 63v87h52zM340 168q0 51 -69 97v-201q31 10 50 37t19 67zM150 509q0 -59 69 -102v185q-30 -7 -49.5 -28.5t-19.5 -54.5z" />
<glyph unicode="%" horiz-adv-x="798" d="M369 507q0 -61 -46 -105.5t-107 -44.5q-60 0 -105 44.5t-45 105.5t45 105.5t105 44.5q61 0 107 -44.5t46 -105.5zM310 509q0 36 -28.5 63t-64.5 27q-38 0 -65 -26.5t-27 -63.5q0 -36 27 -66.5t65 -30.5q42 0 67.5 30t25.5 67zM744 137q0 -61 -46 -105.5t-107 -44.5 q-60 0 -105 44.5t-45 105.5t45 105.5t105 44.5q61 0 107 -44.5t46 -105.5zM685 139q0 36 -28.5 63t-64.5 27q-38 0 -65 -26.5t-27 -63.5q0 -36 27 -66.5t65 -30.5q42 0 67.5 30t25.5 67zM661 647l-441 -647h-81l456 674z" />
<glyph unicode="&#x26;" horiz-adv-x="759" d="M676 -22q-78 26 -178 104q-82 -95 -224 -95q-89 0 -148 52t-59 142q0 59 36.5 108.5t102.5 101.5q-84 125 -84 198q0 76 50.5 121t137.5 45q76 0 120.5 -38.5t44.5 -100.5q0 -31 -13 -60.5t-41 -59.5t-50 -49t-63 -51l-4 -3q80 -106 188 -203q21 41 32 88t11 133 q0 21 -2 81h200l-20 -69h-107q1 -13 1 -38q0 -140 -62 -238q115 -92 189 -109zM307 56q79 0 140 68q-114 99 -204 217q-44 -38 -65.5 -70t-21.5 -68q0 -59 36 -103t115 -44zM206 602q0 -61 65 -162q60 46 91 82.5t31 76.5q0 32 -24.5 61.5t-69.5 29.5q-41 0 -67 -24t-26 -64 z" />
<glyph unicode="'" horiz-adv-x="232" d="M89 543l-18 112l90 16l-1 -244l-73 -1z" />
<glyph unicode="(" horiz-adv-x="330" d="M151 237q0 -75 13.5 -147.5t33 -124t41.5 -92.5t38.5 -62t24.5 -25l-59 -21q-73 41 -125 185.5t-52 286.5q0 140 51.5 270t125.5 172l59 -21q-8 -4 -24 -21.5t-38.5 -54.5t-42 -84t-33 -116.5t-13.5 -144.5z" />
<glyph unicode=")" horiz-adv-x="330" d="M179 237q0 75 -13.5 144.5t-33 116.5t-42 84t-38.5 54.5t-24 21.5l59 21q74 -42 125.5 -172t51.5 -270q0 -142 -52 -286.5t-125 -185.5l-59 21q8 4 24.5 25t38.5 62t41.5 92.5t33 124t13.5 147.5z" />
<glyph unicode="*" horiz-adv-x="402" d="M4 549l30 62l116 -4l-74 128l64 5l59 -104l72 127l36 -54l-60 -102l147 4l-30 -62l-116 4l74 -128l-64 -5l-59 103l-72 -126l-36 54l59 102z" />
<glyph unicode="+" horiz-adv-x="471" d="M201 70v146h-143v74h143v149l70 -19v-130h149l-20 -74h-129v-146h-70z" />
<glyph unicode="," horiz-adv-x="270" d="M96 -141l-36 35q21 20 38.5 48.5t17.5 51.5q0 19 -7.5 29t-28.5 18v9q0 27 16.5 45t43.5 18q25 0 42.5 -18.5t17.5 -53.5q0 -43 -27 -96t-77 -86z" />
<glyph unicode="-" horiz-adv-x="302" d="M31 284h247l-20 -74h-227v74z" />
<glyph unicode="." horiz-adv-x="270" d="M195 50q0 -26 -17.5 -44.5t-42.5 -18.5t-42.5 18.5t-17.5 44.5q0 25 17.5 43t42.5 18t42.5 -18t17.5 -43z" />
<glyph unicode="/" horiz-adv-x="291" d="M260 657l-216 -901h-71l213 901h74z" />
<glyph unicode="0" d="M256 588q203 0 203 -300q0 -134 -54.5 -217.5t-170.5 -83.5q-86 0 -139 74.5t-53 227.5q0 133 53.5 216t160.5 83zM250 522q-116 0 -116 -222q0 -57 5 -99.5t17 -77.5t34.5 -53.5t54.5 -18.5q57 0 90.5 63t33.5 170q0 238 -119 238z" />
<glyph unicode="1" horiz-adv-x="400" d="M49 0v66h123v423l-104 -32l-25 61l213 71v-523h124l-10 -66h-321z" />
<glyph unicode="2" d="M436 0h-349l-10 44q0 2 19 23q223 252 223 358q0 47 -27 73t-64 26q-64 0 -115 -58l-36 70q65 55 165 55q70 0 120 -40t50 -113q0 -135 -162 -304q-33 -35 -59 -56h255z" />
<glyph unicode="3" d="M399 457q0 -89 -115 -145q67 -9 105.5 -60t38.5 -113q0 -110 -88 -175.5t-221 -65.5q-24 0 -36 1l-21 68q14 -2 44 -2q40 0 78.5 9t73.5 27.5t56 51.5t21 77q0 57 -47.5 94t-107.5 39l13 59q113 53 113 122q0 35 -25 57t-60 22q-60 0 -114 -57l-36 70q66 53 159 53 q71 0 120 -35t49 -97z" />
<glyph unicode="4" d="M30 139l274 451l75 -22v-405h98l-20 -78h-78v-110l10 -75h-94v185h-255zM297 163v252l5 58l-28 -63l-130 -222l-18 -25h171z" />
<glyph unicode="5" d="M426 575l-20 -78h-209l-5 -131q95 0 168 -60.5t73 -157.5q0 -63 -26.5 -112.5t-71.5 -79t-99.5 -44t-114.5 -14.5q-18 0 -27 1l-21 68q14 -2 46 -2q56 0 105.5 17.5t84 56.5t34.5 94q0 70 -53.5 119t-138.5 49l-36 -2l12 276h299z" />
<glyph unicode="6" d="M285 421q74 0 125 -50t51 -143q0 -102 -56.5 -171.5t-154.5 -69.5q-71 0 -120 46.5t-69.5 115.5t-20.5 153q0 183 74 275t192 92q40 0 80.5 -14.5t63.5 -42.5l-35 -68q-15 24 -47 40t-67 16q-65 0 -112 -57.5t-57 -169.5q75 48 153 48zM267 58q49 0 76 43t27 99 q0 74 -35.5 112t-91.5 38q-59 0 -113 -43q1 -67 12.5 -119.5t43 -91t81.5 -38.5z" />
<glyph unicode="7" d="M184 -111l-81 15l259 593h-293l-30 78h422l15 -23z" />
<glyph unicode="8" d="M236 -13q-44 0 -84 13.5t-70.5 50.5t-30.5 91q0 63 37 109t104 92q-56 44 -85.5 82.5t-29.5 83.5q0 70 50 115t135 45q76 0 121.5 -38t45.5 -95q0 -54 -31.5 -95.5t-86.5 -80.5q33 -25 53.5 -42.5t44 -42t34.5 -48t11 -47.5q0 -84 -62 -138.5t-156 -54.5zM138 172 q0 -54 29 -83.5t78 -29.5q47 0 84.5 28.5t37.5 67.5q0 25 -21 53.5t-43 47.5t-66 53q-48 -33 -73.5 -64.5t-25.5 -72.5zM343 509q0 40 -22 68.5t-70 28.5q-41 0 -66 -22t-25 -59q0 -30 27 -61t77 -69q79 58 79 114z" />
<glyph unicode="9" d="M212 154q-74 0 -125 50t-51 143q0 102 56.5 171.5t154.5 69.5q71 0 120 -46.5t69.5 -115.5t20.5 -153q0 -185 -75 -286t-191 -101q-40 0 -80.5 14.5t-63.5 42.5l35 68q15 -24 47 -40t67 -16q63 0 111 66.5t58 180.5q-75 -48 -153 -48zM230 517q-49 0 -76 -43t-27 -99 q0 -74 35.5 -112t91.5 -38q59 0 113 43q-1 67 -12.5 119.5t-43 91t-81.5 38.5z" />
<glyph unicode=":" horiz-adv-x="258" d="M193 326q0 -26 -17.5 -44.5t-42.5 -18.5t-42.5 18.5t-17.5 44.5q0 25 17.5 43t42.5 18t42.5 -18t17.5 -43zM193 50q0 -26 -17.5 -44.5t-42.5 -18.5t-42.5 18.5t-17.5 44.5q0 25 17.5 43t42.5 18t42.5 -18t17.5 -43z" />
<glyph unicode=";" horiz-adv-x="258" d="M193 326q0 -26 -17.5 -44.5t-42.5 -18.5t-42.5 18.5t-17.5 44.5q0 25 17.5 43t42.5 18t42.5 -18t17.5 -43zM87 -141l-36 35q21 20 38.5 48.5t17.5 51.5q0 19 -7.5 29t-28.5 18v9q0 27 16.5 45t43.5 18q25 0 42.5 -18.5t17.5 -53.5q0 -43 -27 -96t-77 -86z" />
<glyph unicode="&#x3c;" horiz-adv-x="369" d="M322 412l-173 -166l173 -164l-39 -64l-243 229l243 229z" />
<glyph unicode="=" horiz-adv-x="480" d="M58 203h356l-20 -74h-336v74zM58 368h366l-20 -74h-346v74z" />
<glyph unicode="&#x3e;" horiz-adv-x="369" d="M214 246l-173 166l39 64l243 -229l-243 -229l-39 64z" />
<glyph unicode="?" horiz-adv-x="429" d="M192 172l-80 26q-4 22 -4 34q0 43 19 81.5t46 68l54 58t46 64.5t19 74q0 41 -27.5 68.5t-78.5 27.5q-19 0 -44 -6.5t-40.5 -13t-15.5 -7.5l-34 81q60 29 134 29q90 0 146.5 -46.5t56.5 -120.5q0 -42 -15.5 -80.5t-38 -66.5t-49.5 -57l-49.5 -52.5t-38 -53.5t-15.5 -59z M228 50q0 -26 -19 -44.5t-45 -18.5t-45 18.5t-19 44.5q0 25 19 43t45 18t45 -18t19 -43z" />
<glyph unicode="@" horiz-adv-x="902" d="M608 416v-246q0 -104 20 -121q60 1 100.5 71t40.5 162q0 138 -78.5 225.5t-220.5 87.5q-93 0 -171 -55.5t-120 -140.5t-42 -177q0 -82 38 -157.5t113 -127.5t171 -56l-51 -70q-160 20 -254 140t-94 269q0 113 49.5 212t148.5 162.5t226 63.5q151 0 256 -100t105 -250 q0 -132 -67.5 -227.5t-186.5 -95.5q-10 0 -32 2q-24 26 -28 81q-1 0 -7.5 -8t-18 -19t-26 -22.5t-36 -19.5t-43.5 -8q-64 0 -110.5 58.5t-46.5 145.5q0 137 86 224t206 87q38 0 86 -15zM523 117l-1 321q-8 0 -23.5 -2.5t-46.5 -16t-56 -36.5t-44.5 -70t-19.5 -110 q0 -53 27.5 -92t67.5 -39q52 0 96 45z" />
<glyph unicode="A" horiz-adv-x="571" d="M-2 0l254 658l61 13l204 -561l50 -110h-109l-63 172h-245l-65 -172h-87zM265 477l-88 -229h193l-83 230l-10 39z" />
<glyph unicode="B" horiz-adv-x="559" d="M202 588v-195h72q11 0 22 -0.5t19.5 -1.5t15.5 -3t11 -2h5q38 51 38 101q0 53 -34 78t-106 25q-13 0 -43 -2zM99 658l158 5q96 3 155 -38.5t59 -117.5q0 -62 -75 -137q55 -25 84 -62.5t29 -103.5q0 -89 -59 -146.5t-187 -57.5h-151v566zM202 319v-247h73q74 0 106.5 35 t32.5 88q0 66 -38 95t-117 29h-57z" />
<glyph unicode="C" horiz-adv-x="617" d="M573 588l-46 -68q-73 76 -168 76q-94 0 -156 -81.5t-62 -189.5q0 -116 68 -188.5t157 -72.5q82 0 186 78l8 6l22 -74q-4 -4 -11 -9.5t-31 -20.5t-49.5 -26.5t-64 -21t-76.5 -9.5q-124 0 -214.5 87.5t-90.5 240.5q0 152 92.5 253.5t225.5 101.5q120 0 210 -82z" />
<glyph unicode="D" horiz-adv-x="668" d="M348 658q114 0 194.5 -84t80.5 -241q0 -143 -84 -238t-221 -95h-206v566l-13 92h249zM330 586h-128v-514h128q84 0 140 74.5t56 180.5q0 107 -56 183t-140 76z" />
<glyph unicode="E" d="M112 0v566l-13 92h342v-74h-239v-210h209l-20 -74h-189v-226h250l-20 -74h-320z" />
<glyph unicode="F" horiz-adv-x="481" d="M112 566l-13 92h342v-74h-239v-210h209l-20 -74h-189v-225l10 -75h-100v566z" />
<glyph unicode="G" horiz-adv-x="658" d="M577 325l1 -300q-101 -38 -228 -38q-124 0 -214.5 87.5t-90.5 240.5t90 254t223 101q125 0 215 -82l-46 -68q-73 76 -168 76q-91 0 -154.5 -82t-63.5 -189q0 -117 68.5 -191.5t158.5 -74.5q54 0 122 17l1 175l-17 74h103z" />
<glyph unicode="H" horiz-adv-x="755" d="M644 658v-583l10 -75h-100v300h-352v-225l10 -75h-100v566l-13 92h103v-278h352v186l-13 92h103z" />
<glyph unicode="I" horiz-adv-x="312" d="M202 658v-583l10 -75h-100v566l-13 92h103z" />
<glyph unicode="J" horiz-adv-x="297" d="M196 658v-620q0 -100 -49.5 -168.5t-146.5 -68.5q-24 0 -54 6l5 88q28 -13 49 -13q47 0 76.5 45.5t29.5 110.5v528l-13 92h103z" />
<glyph unicode="K" horiz-adv-x="578" d="M572 0h-119l-251 333v-258l10 -75h-100v566l-13 92h103v-313l203 248l29 65h129l-260 -312z" />
<glyph unicode="L" horiz-adv-x="466" d="M112 0v566l-13 92h103v-582h258l-20 -76h-328z" />
<glyph unicode="M" horiz-adv-x="894" d="M453 74l-232 319l-33 66v-384l10 -75h-92v566l-13 92h66l298 -425l270 425h56v-583l10 -75h-100v463l-35 -70z" />
<glyph unicode="N" horiz-adv-x="748" d="M647 658v-583l6 -75h-47l-375 420l-43 65v-410l10 -75h-92v566l-13 92h61l367 -416l44 -65v389l-13 92h95z" />
<glyph unicode="O" horiz-adv-x="680" d="M346 670q140 0 214.5 -92.5t74.5 -242.5q0 -146 -87 -247t-215 -101q-133 0 -210 96t-77 240q0 146 86 246.5t214 100.5zM144 329q0 -114 55 -192t142 -78t141.5 78t54.5 192t-54.5 192t-141.5 78t-142 -78t-55 -192z" />
<glyph unicode="P" horiz-adv-x="546" d="M99 658h186q90 0 153 -51t63 -147q0 -87 -72 -150.5t-178 -63.5h-49v-171l10 -75h-100v566zM202 320h65q58 0 98.5 38.5t40.5 101.5q0 59 -40 91.5t-99 32.5h-65v-264z" />
<glyph unicode="Q" horiz-adv-x="680" d="M346 670q140 0 214.5 -92.5t74.5 -242.5q0 -135 -75.5 -232.5t-189.5 -112.5l222 -94l-38 -84l-240 114v63q-125 7 -196.5 101t-71.5 233q0 146 86 246.5t214 100.5zM144 329q0 -114 55 -192t142 -78t141.5 78t54.5 192t-54.5 192t-141.5 78t-142 -78t-55 -192z" />
<glyph unicode="R" horiz-adv-x="588" d="M578 0h-116l-176 247q-11 -1 -84 -1v-171l10 -75h-100v566l-13 92h186q90 0 153 -51t63 -147q0 -59 -34.5 -109.5t-93.5 -78.5zM202 320h65q56 0 97.5 41.5t41.5 98.5q0 59 -40 91.5t-99 32.5h-65v-264z" />
<glyph unicode="S" horiz-adv-x="480" d="M54 61l10 86q3 -4 8.5 -9.5t23.5 -21t37 -27t47 -21t56 -9.5q45 0 76 29.5t31 79.5q0 36 -29.5 65.5t-71.5 52l-84.5 47t-72 62.5t-29.5 87q0 78 55 133t138 55q91 0 165 -47l-26 -73q-2 4 -20 15t-53 22.5t-69 11.5q-38 0 -67 -24.5t-29 -65.5q0 -39 29 -69.5 t70.5 -52.5t83 -46.5t70.5 -65t29 -94.5q0 -86 -54.5 -140t-144.5 -54q-52 0 -97 19q-46 18 -64 36z" />
<glyph unicode="T" horiz-adv-x="526" d="M5 582v76h516v-76h-216v-507l10 -75h-100v582h-210z" />
<glyph unicode="U" horiz-adv-x="727" d="M537 252v314l-13 92h97v-395q0 -123 -74 -199.5t-196 -76.5q-56 0 -99.5 17t-68.5 45t-41.5 56.5t-22.5 60.5t-8 46.5t-2 24.5v329l-13 92h103v-413q0 -80 48.5 -132.5t121.5 -52.5t120.5 55.5t47.5 136.5z" />
<glyph unicode="V" horiz-adv-x="584" d="M583 658l-259 -671l-63 13l-199 548l-58 110h120l157 -440l21 -84l26 84l166 440h89z" />
<glyph unicode="W" horiz-adv-x="924" d="M924 658l-259 -671l-62 13l-119 326l-18 62l-17 -63l-130 -338l-56 13l-199 548l-58 110h118l157 -440l21 -84l26 84l100 263l-67 177h103l157 -440l21 -84l26 84l166 440h90z" />
<glyph unicode="X" horiz-adv-x="497" d="M9 0l195 334l-141 253l-52 71h117l117 -209l15 -31l13 31l119 209h94l-187 -316l192 -342h-107l-124 225l-15 33l-16 -35l-125 -223h-95z" />
<glyph unicode="Y" horiz-adv-x="509" d="M303 290v-215l10 -75h-100v290l-155 297l-52 71h116l130 -247l14 -40l19 42l131 245h90z" />
<glyph unicode="Z" horiz-adv-x="566" d="M36 0l-4 25l313 496l44 60h-335l22 77h446l4 -25l-312 -495l-46 -62h369v-76h-501z" />
<glyph unicode="[" horiz-adv-x="257" d="M239 724v-62h-81v-668h81v-63h-161v793h161z" />
<glyph unicode="\" horiz-adv-x="356" d="M288 -244l-283 901h76l275 -901h-68z" />
<glyph unicode="]" horiz-adv-x="257" d="M18 662v62h161v-793h-161v63h81v668h-81z" />
<glyph unicode="^" horiz-adv-x="624" d="M551 320h-70l-170 307l-170 -307h-70l212 388h56q198 -364 212 -388z" />
<glyph unicode="_" horiz-adv-x="450" d="M478 -75l-30 -60h-446v60h476z" />
<glyph unicode="`" horiz-adv-x="338" d="M36 724h110l124 -143l-55 -20z" />
<glyph unicode="a" horiz-adv-x="506" d="M113 364l-45 65q3 3 8 8.5t23 18.5t39 23t55 18.5t71 8.5q65 0 107.5 -31t42.5 -97v-265q1 -58 45 -113l-93 -13q-28 38 -29 82q-21 -32 -67.5 -57t-91.5 -25q-53 0 -91 35t-38 89q0 83 78.5 134t202.5 51v36q0 107 -75 107q-80 0 -135 -66zM215 59q30 0 63 20.5t52 41.5 v111q-191 -7 -191 -106q0 -27 19.5 -47t56.5 -20z" />
<glyph unicode="b" horiz-adv-x="548" d="M80 745l97 11v-296q69 45 122 45q82 0 141 -64t59 -184q0 -111 -69 -190.5t-175 -79.5q-54 0 -100.5 22.5t-61.5 54.5v589zM177 395v-306q35 -37 94 -37q55 0 95 58.5t40 137.5q0 77 -37.5 133.5t-92.5 56.5q-21 0 -45.5 -10.5t-39 -21t-14.5 -11.5z" />
<glyph unicode="c" horiz-adv-x="480" d="M443 437l-53 -67q-47 67 -112 67t-103 -54.5t-38 -129.5q0 -77 36.5 -133t105.5 -56q77 0 145 63l5 5l14 -76q-3 -3 -8 -7.5t-22.5 -16.5t-37.5 -21t-52.5 -16.5t-67.5 -7.5q-93 0 -149.5 75.5t-56.5 174.5q0 113 61 191.5t170 78.5q105 0 163 -70z" />
<glyph unicode="d" horiz-adv-x="546" d="M455 755v-642q1 -58 45 -113l-93 -13q-24 33 -29 73q-72 -73 -149 -73q-76 0 -128 66.5t-52 181.5q0 111 69 190.5t175 79.5q22 0 78 -6v153l-13 92zM261 55q58 0 110 67v311l-3 1q-2 0 -8 0.5t-13 1t-16 1.5t-18 1.5l-18.5 1t-17.5 0.5q-55 0 -95 -58.5t-40 -137.5 q0 -84 34.5 -136.5t84.5 -52.5z" />
<glyph unicode="e" horiz-adv-x="492" d="M272 507q162 0 170 -235l-23 -26h-279q2 -75 37.5 -128.5t103.5 -53.5q38 0 77 17q40 17 60 34l20 17l14 -76q-3 -3 -8.5 -7.5t-24.5 -16.5t-40 -21t-54 -16.5t-68 -7.5q-93 0 -149.5 75.5t-56.5 174.5q0 115 56.5 192.5t164.5 77.5zM260 442q-89 0 -115 -132h206 q-3 51 -24 91.5t-67 40.5z" />
<glyph unicode="f" horiz-adv-x="328" d="M40 424v68h61v73q0 97 41 143t104 46q57 0 115 -34l-33 -75q-36 30 -72 30q-31 0 -51 -24t-20 -68v-91h140l-30 -68h-110v-321l10 -103h-94v424h-61z" />
<glyph unicode="g" horiz-adv-x="517" d="M245 118q-39 0 -75 14q-28 -35 -28 -56q0 -22 35 -28t84.5 -5.5t99 -4t84.5 -33t35 -82.5q0 -76 -72 -121t-165 -45q-51 0 -91 11t-61 26.5t-34.5 31t-17.5 26.5l-4 11l62 57q18 -50 61.5 -74.5t95.5 -24.5q56 0 96 23t40 56q0 28 -23.5 41.5t-59 14t-76.5 2.5t-76.5 6.5 t-59 27t-23.5 63.5q0 51 56 101q-70 56 -70 151q0 87 57.5 143.5t149.5 56.5q29 0 53 -7q22 -7 32 -14l10 -7l18 13h131l-20 -68h-80q33 -41 33 -103q0 -97 -57.5 -150t-139.5 -53zM145 312q0 -54 32 -93t74 -39t72.5 38.5t30.5 93.5t-30.5 94t-72.5 39t-74 -39.5t-32 -93.5 z" />
<glyph unicode="h" horiz-adv-x="578" d="M499 0h-94v288q0 76 -14.5 108t-58.5 32q-47 0 -85 -18q-38 -20 -53 -38l-15 -18v-279l10 -75h-94v652l-13 92l97 11v-327q32 35 81 56.5t98 21.5q54 0 92.5 -30.5t38.5 -87.5v-315z" />
<glyph unicode="i" horiz-adv-x="274" d="M80 641q0 21 15 36.5t37 15.5q20 0 35.5 -15.5t15.5 -36.5t-15.5 -37.5t-35.5 -16.5q-21 0 -36.5 16.5t-15.5 37.5zM179 503v-428l10 -75h-94v400l-13 92z" />
<glyph unicode="j" horiz-adv-x="270" d="M80 641q0 21 15 36.5t37 15.5q20 0 35.5 -15.5t15.5 -36.5t-15.5 -37.5t-35.5 -16.5q-21 0 -36.5 16.5t-15.5 37.5zM179 503v-515q0 -103 -47 -166.5t-119 -64.5l-33 69q115 0 115 162v412l-13 92z" />
<glyph unicode="k" horiz-adv-x="511" d="M509 0h-114l-216 261v-186l10 -75h-94v652l-13 92l97 11v-483l161 171l27 49h127l-222 -216z" />
<glyph unicode="l" horiz-adv-x="274" d="M179 755v-680l10 -75h-94v652l-13 92z" />
<glyph unicode="m" horiz-adv-x="884" d="M499 0h-94v288q0 76 -14.5 108t-58.5 32q-47 0 -85 -18q-38 -20 -53 -38l-15 -18v-279l10 -75h-94v400l-13 92l97 11v-75q32 35 81 56.5t98 21.5q42 0 76 -20.5t48 -57.5q32 35 81 56.5t98 21.5q54 0 92.5 -30.5t38.5 -87.5v-315l10 -73h-94v288q0 76 -14.5 108t-58.5 32 q-87 0 -146 -65v-290z" />
<glyph unicode="n" horiz-adv-x="581" d="M499 0h-94v288q0 76 -14.5 108t-58.5 32q-47 0 -85 -18q-38 -20 -53 -38l-15 -18v-279l10 -75h-94v400l-13 92l97 11v-75q32 35 81 56.5t98 21.5q54 0 92.5 -30.5t38.5 -87.5v-315z" />
<glyph unicode="o" horiz-adv-x="553" d="M49 238q0 118 66.5 193.5t178.5 75.5q94 0 152 -63.5t58 -186.5q0 -113 -66.5 -191.5t-177.5 -78.5q-58 0 -100.5 25.5t-63 57.5t-32 73.5t-13.5 61.5t-2 33zM141 247q0 -81 37 -137t98 -56t98.5 56t37.5 137t-37.5 137t-98.5 56t-98 -56t-37 -137z" />
<glyph unicode="p" horiz-adv-x="553" d="M95 -240v640l-13 92l97 11v-59q5 7 16 17t47.5 27t78.5 17q76 0 128 -66.5t52 -181.5q0 -111 -69 -190.5t-175 -79.5q-22 0 -78 6v-158l10 -75h-94zM179 59l3 -1q2 0 8 -0.5t13 -1t16 -1.5t18 -1.5l18.5 -1t17.5 -0.5q55 0 95 58.5t40 137.5q0 83 -33 134.5t-83 51.5 q-30 0 -58 -16t-42 -32l-13 -17v-310z" />
<glyph unicode="q" horiz-adv-x="541" d="M463 -240h-92v271q-67 -44 -122 -44q-82 0 -141 65t-59 185q0 111 69 190.5t175 79.5q26 0 66.5 -4.5t68.5 -8.5l27 -4v-638zM371 90v342q-59 10 -94 10q-55 0 -95 -58.5t-40 -137.5t40 -137.5t95 -58.5q49 0 94 40z" />
<glyph unicode="r" horiz-adv-x="388" d="M398 479l-34 -82q-24 21 -51 21q-50 0 -92 -49t-42 -114v-180l10 -75h-94v400l-13 92l97 11v-110q64 114 156 114q36 0 63 -28z" />
<glyph unicode="s" horiz-adv-x="427" d="M54 45l9 81q2 -3 6.5 -7.5t19 -16t30 -20.5t39 -16t47.5 -7q88 0 88 67q0 24 -25 43.5t-61 35t-72 34t-61 49.5t-25 72q0 66 47.5 106.5t119.5 40.5q87 0 144 -34l-24 -80q-49 50 -128 50q-31 0 -52.5 -17t-21.5 -42q0 -29 25 -50.5t61 -36.5t72 -32.5t61 -49t25 -76.5 q0 -67 -47.5 -109.5t-126.5 -42.5q-45 0 -82.5 14.5t-52.5 28.5z" />
<glyph unicode="t" horiz-adv-x="367" d="M194 593l-10 -101h153l-30 -68h-123v-293q0 -64 55 -64q65 0 108 41l14 -76q-57 -45 -142 -45q-53 0 -86 37t-33 115v285h-61v68h61v90z" />
<glyph unicode="u" horiz-adv-x="575" d="M407 74q-29 -37 -82.5 -62t-103.5 -25q-54 0 -92.5 30.5t-38.5 87.5v295l-13 92l97 11v-298q0 -76 14.5 -108t58.5 -32q91 0 146 66l7 9v260l-13 92l97 11v-390q1 -58 45 -113l-93 -13q-29 41 -29 87z" />
<glyph unicode="v" horiz-adv-x="475" d="M469 505l-207 -518l-75 13l-137 409l-44 83l98 13l115 -333l15 -73l21 73l126 320z" />
<glyph unicode="w" horiz-adv-x="808" d="M802 505l-207 -518l-70 13l-120 352l-148 -365l-70 13l-137 409l-44 83l95 13l116 -333l15 -72l21 72l111 282l-20 38l97 13l114 -334l14 -71l21 72l126 320z" />
<glyph unicode="x" horiz-adv-x="446" d="M445 505l-170 -237l171 -268h-104l-105 171l-15 29l-14 -29l-117 -171h-91l182 259l-103 162l-62 71l107 13l97 -153l10 -25l15 25l98 140z" />
<glyph unicode="y" horiz-adv-x="475" d="M469 505l-236 -589q-31 -77 -79 -118t-102 -41q-24 0 -52 11l-14 85q28 -10 51 -10q88 0 129 106l21 55l-137 405l-44 83l98 13l117 -333l13 -73l21 73l126 320z" />
<glyph unicode="z" horiz-adv-x="449" d="M28 0l-3 19l232 364l31 41h-250l20 68h353l3 -19l-230 -364l-31 -41h266v-68h-391z" />
<glyph unicode="{" horiz-adv-x="274" d="M17 273v52q25 0 42.5 10t24 25t9 25.5t2.5 19.5v201q0 73 45 111t116 38v-62q-81 0 -81 -90v-197q-2 -63 -46 -107q5 -5 12.5 -13.5t20.5 -36.5t13 -57v-282q0 -90 81 -90v-62q-71 0 -116 38t-45 111v286q0 9 -2.5 19.5t-9 25.5t-24 25t-42.5 10z" />
<glyph unicode="|" horiz-adv-x="227" d="M149 756v-1010h-71v1010h71z" />
<glyph unicode="}" horiz-adv-x="274" d="M257 325v-52q-25 0 -42.5 -10t-24 -25t-9 -25.5t-2.5 -19.5v-286q0 -73 -45 -111t-116 -38v62q81 0 81 90v282q2 63 46 107q-5 5 -12.5 13.5t-20.5 36.5t-13 57v197q0 90 -81 90v62q71 0 116 -38t45 -111v-201q0 -9 2.5 -19.5t9 -25.5t24 -25t42.5 -10z" />
<glyph unicode="~" horiz-adv-x="578" d="M529 269q-60 -62 -137 -62q-52 0 -116.5 32t-99.5 32q-49 0 -98 -43l-29 61q63 55 134 55q51 0 113 -32t102 -32q48 0 101 48z" />
<glyph unicode="&#xa1;" horiz-adv-x="264" d="M67 608q0 26 17.5 44.5t42.5 18.5t42.5 -18.5t17.5 -44.5q0 -25 -17.5 -43t-42.5 -18t-42.5 18t-17.5 43zM79 -98l15 566l67 10l13 -474l13 -89z" />
<glyph unicode="&#xa2;" horiz-adv-x="472" d="M299 585v-79q92 -4 146 -69l-41 -58q-11 18 -46 39t-59 22v-373q72 6 129 65l3 3l14 -79q-6 -6 -17.5 -15t-49.5 -26.5t-79 -23.5v-85h-52v81q-91 3 -143.5 77t-52.5 173q0 102 51.5 178t144.5 89v81h52zM141 253q0 -63 27.5 -114t78.5 -67v365q-50 -14 -78 -66.5 t-28 -117.5z" />
<glyph unicode="&#xa3;" horiz-adv-x="549" d="M509 -102h-468q9 19 22 51t34.5 122t21.5 167v35h-61v68h61v214q0 49 21 89t53.5 63t67 35t65.5 12q55 0 102 -16t66 -32l19 -16l-34 -79q-7 8 -20.5 19.5t-51 31t-71.5 19.5q-58 0 -94 -35t-36 -83v-222h207l-30 -68h-177v-44q0 -68 -12 -132q-12 -65 -24 -95l-11 -30 h370z" />
<glyph unicode="&#xa5;" horiz-adv-x="520" d="M99 368h88l-114 219l-62 71h126l146 -277l148 277h87l-163 -290h110l-20 -68h-127v-97h137l-20 -68h-117v-60l10 -75h-100v135h-129v68h129v97h-129v68z" />
<glyph unicode="&#xa7;" horiz-adv-x="420" d="M270 684q105 -698 105 -700q0 -75 -57 -119t-137 -44q-35 0 -62.5 6.5t-42 16.5t-23.5 20t-11 16l-3 6l4 65q50 -59 130 -59q-106 684 -106 699q0 74 57 119t137 45q35 0 62.5 -6.5t42 -16.5t23.5 -20t11 -16l3 -6l-4 -65q-50 59 -129 59zM236 -99q73 23 73 84 q0 11 -104 690q-73 -21 -73 -84q0 -4 104 -690z" />
<glyph unicode="&#xa8;" horiz-adv-x="384" d="M152 631q0 -23 -15 -39t-35 -16t-35 16t-15 39q0 22 15 38.5t35 16.5t35 -16.5t15 -38.5zM336 631q0 -23 -15 -39t-35 -16t-35 16t-15 39q0 22 15 38.5t35 16.5t35 -16.5t15 -38.5z" />
<glyph unicode="&#xa9;" horiz-adv-x="790" d="M524 464l-37 -52q-31 44 -86 44q-44 0 -69 -35.5t-25 -88.5t25.5 -90.5t73.5 -37.5q25 0 52 14q26 12 40 26l14 14l12 -66q-6 -6 -17 -14.5t-48 -22.5t-78 -14q-68 0 -108 54t-40 126q0 81 45 138t125 57q77 0 121 -52zM735 341q0 -158 -98 -256t-258 -98 q-141 0 -232.5 93t-91.5 232q0 157 100.5 254.5t264.5 97.5q137 0 226 -92.5t89 -230.5zM673 328q0 125 -77 205t-197 80q-116 0 -198 -82.5t-82 -206.5q0 -122 80.5 -203t201.5 -81q112 0 192 82.5t80 205.5z" />
<glyph unicode="&#xaa;" horiz-adv-x="405" d="M93 557l-40 55q6 7 16.5 16.5t50 26t85.5 16.5q52 0 85.5 -23t33.5 -73v-199q0 -44 34 -83l-78 -11q-24 15 -25 48q-20 -20 -52 -34t-57 -14q-51 0 -79 29t-28 68q0 56 55.5 92.5t154.5 38.5v31q0 78 -49 78q-28 0 -55 -15.5t-39 -31.5zM170 338q38 0 79 44v83 q-133 -9 -133 -74q0 -21 14 -37t40 -16z" />
<glyph unicode="&#xab;" horiz-adv-x="601" d="M322 412l-173 -166l173 -164l-39 -64l-243 229l243 229zM551 412l-173 -166l173 -164l-39 -64l-243 229l243 229z" />
<glyph unicode="&#xac;" horiz-adv-x="1212" d="M45 245l527 174v-346zM1060 245q0 22 15.5 37.5t37.5 15.5t38 -15.5t16 -37.5q0 -23 -15.5 -38.5t-38.5 -15.5q-22 0 -37.5 16t-15.5 38zM855 245q0 22 15.5 37.5t37.5 15.5t38 -15.5t16 -37.5q0 -23 -16 -38.5t-38 -15.5t-37.5 16t-15.5 38zM655 245q0 22 15.5 37.5 t37.5 15.5t38 -15.5t16 -37.5q0 -23 -16 -38.5t-38 -15.5t-37.5 16t-15.5 38z" />
<glyph unicode="&#xad;" horiz-adv-x="302" d="M31 284h247l-20 -74h-227v74z" />
<glyph unicode="&#xae;" horiz-adv-x="790" d="M564 156h-80l-91 129h-28v-87q0 -7 5 -42h-74v299l-6 53h108q51 0 86.5 -28.5t35.5 -79.5q0 -31 -17 -58.5t-50 -41.5zM389 325q23 0 42.5 23.5t19.5 51.5t-19 47t-43 19h-24v-141h24zM735 341q0 -158 -98 -256t-258 -98q-141 0 -232.5 93t-91.5 232q0 157 100.5 254.5 t264.5 97.5q137 0 226 -92.5t89 -230.5zM673 328q0 125 -77 205t-197 80q-116 0 -198 -82.5t-82 -206.5q0 -122 80.5 -203t201.5 -81q112 0 192 82.5t80 205.5z" />
<glyph unicode="&#xaf;" horiz-adv-x="335" d="M50 665h247l-20 -74h-227v74z" />
<glyph unicode="&#xb0;" horiz-adv-x="399" d="M364 576q0 -68 -51 -118t-119 -50q-67 0 -117.5 50t-50.5 118t50.5 117.5t117.5 49.5q68 0 119 -49.5t51 -117.5zM298 578q0 40 -31.5 70t-71.5 30q-42 0 -72.5 -29.5t-30.5 -70.5t30 -74.5t73 -33.5q47 0 75 33t28 75z" />
<glyph unicode="&#xb1;" horiz-adv-x="471" d="M201 140v146h-143v74h143v149l70 -19v-130h149l-20 -74h-129v-146h-70zM87 69h310l-20 -69h-290v69z" />
<glyph unicode="&#xb2;" horiz-adv-x="349" d="M302 286h-245l-6 31l12 12l24 24.5l30 32.5t32.5 40t29 42t21.5 42.5t8 39.5q0 30 -15 46.5t-35 16.5q-46 0 -77 -36l-29 56q46 39 115 39q50 0 85.5 -28t35.5 -82q0 -33 -19.5 -72t-49.5 -72.5t-45.5 -49t-26.5 -24.5h161z" />
<glyph unicode="&#xb3;" horiz-adv-x="349" d="M285 586q0 -29 -20.5 -54.5t-54.5 -35.5q37 -6 63.5 -31t26.5 -71q0 -59 -50 -86.5t-123 -27.5q-4 0 -67 6l-15 58q40 -8 63 -8q111 0 111 58q0 32 -31 49.5t-66 17.5l8 40q76 32 76 76q0 40 -44 40q-48 0 -82 -33l-27 51q46 37 112 37q49 0 84.5 -23t35.5 -63z" />
<glyph unicode="&#xb4;" horiz-adv-x="338" d="M192 724h110l-179 -163l-55 20z" />
<glyph unicode="&#xb6;" horiz-adv-x="622" d="M58 365q0 122 86 207.5t208 85.5h60v-902h-60v316q-122 0 -208 86t-86 207zM537 658v-902h-60v902h60z" />
<glyph unicode="&#xb7;" horiz-adv-x="258" d="M186 245q0 -26 -17.5 -44.5t-42.5 -18.5t-42.5 18.5t-17.5 44.5q0 25 17.5 43t42.5 18t42.5 -18t17.5 -43z" />
<glyph unicode="&#xb8;" horiz-adv-x="402" d="M141 -58l10 51h29q10 -13 40 -31.5t51 -39t21 -49.5q0 -52 -34 -80t-82 -28q-53 0 -96 31l24 49q23 -23 70 -23q57 0 57 37q0 14 -14 27t-39 28.5t-37 27.5z" />
<glyph unicode="&#xb9;" horiz-adv-x="300" d="M48 286v46h79v265l-64 -20l-18 45l158 51v-341h78l-6 -46h-227z" />
<glyph unicode="&#xba;" horiz-adv-x="442" d="M45 470q0 89 51.5 145.5t137.5 56.5q73 0 118 -48t45 -140q0 -85 -51 -143.5t-138 -58.5q-45 0 -78 19t-48.5 43t-24.5 55t-10.5 46t-1.5 25zM126 477q0 -61 26 -103t68 -42q43 0 69 42t26 103t-26 103t-69 42q-42 0 -68 -42t-26 -103z" />
<glyph unicode="&#xbb;" horiz-adv-x="601" d="M452 246l-173 166l39 64l243 -229l-243 -229l-39 64zM223 246l-173 166l39 64l243 -229l-243 -229l-39 64z" />
<glyph unicode="&#xbc;" horiz-adv-x="688" d="M48 286v46h79v265l-64 -20l-18 45l158 51v-341h78l-6 -46h-227zM579 571l-330 -477h-63l342 497zM356 71l174 262l65 -20v-223h70l-13 -54h-57v-44l6 -50h-80v94h-158zM522 90v118l2 36l-16 -33l-73 -108l-14 -14l28 1h73z" />
<glyph unicode="&#xbd;" horiz-adv-x="710" d="M663 -58h-245l-6 31q26 27 54 59.5t64.5 91.5t36.5 95q0 53 -48 53q-43 0 -77 -39l-29 56q45 39 115 39q49 0 85 -27t36 -74q0 -43 -36.5 -100.5t-63.5 -86t-41 -40.5h161zM568 571l-330 -477h-63l342 497zM48 286v46h79v265l-64 -20l-18 45l158 51v-341h78l-6 -46h-227z " />
<glyph unicode="&#xbe;" horiz-adv-x="676" d="M567 571l-330 -477h-63l342 497zM344 71l174 262l65 -20v-223h70l-13 -54h-57v-44l6 -50h-80v94h-158zM510 90v118l2 36l-16 -33l-73 -108l-14 -14l28 1h73zM285 586q0 -29 -20.5 -54.5t-54.5 -35.5q37 -6 63.5 -31t26.5 -71q0 -59 -50 -86.5t-123 -27.5q-4 0 -67 6 l-15 58q40 -8 63 -8q111 0 111 58q0 32 -31 49.5t-66 17.5l8 40q76 32 76 76q0 40 -44 40q-48 0 -82 -33l-27 51q46 37 112 37q49 0 84.5 -23t35.5 -63z" />
<glyph unicode="&#xbf;" horiz-adv-x="429" d="M237 486l80 -26q4 -22 4 -34q0 -43 -19 -81.5t-46 -68l-54 -58t-46 -64.5t-19 -74q0 -41 27.5 -68.5t78.5 -27.5q19 0 44 6.5t40.5 13t15.5 7.5l34 -81q-60 -29 -134 -29q-90 0 -146.5 46.5t-56.5 120.5q0 42 15.5 80.5t38 66.5t49.5 57l49.5 52.5t38 53.5t15.5 59z M201 608q0 26 19 44.5t45 18.5t45 -18.5t19 -44.5q0 -25 -19 -43t-45 -18t-45 18t-19 43z" />
<glyph unicode="&#xc0;" horiz-adv-x="571" d="M-2 0l254 658l61 13l204 -561l50 -110h-109l-63 172h-245l-65 -172h-87zM265 477l-88 -229h193l-83 230l-10 39zM127 875h110l124 -143l-55 -20z" />
<glyph unicode="&#xc1;" horiz-adv-x="571" d="M-2 0l254 658l61 13l204 -561l50 -110h-109l-63 172h-245l-65 -172h-87zM265 477l-88 -229h193l-83 230l-10 39zM335 875h110l-179 -163l-55 20z" />
<glyph unicode="&#xc2;" horiz-adv-x="571" d="M-2 0l254 658l61 13l204 -561l50 -110h-109l-63 172h-245l-65 -172h-87zM265 477l-88 -229h193l-83 230l-10 39zM254 875h62l124 -143l-53 -20l-103 93l-101 -93l-53 20z" />
<glyph unicode="&#xc3;" horiz-adv-x="571" d="M-2 0l254 658l61 13l204 -561l50 -110h-109l-63 172h-245l-65 -172h-87zM265 477l-88 -229h193l-83 230l-10 39zM403 823l43 -26q-15 -27 -23.5 -38t-29 -22t-50.5 -11q-33 0 -71 18t-54 18q-28 0 -50 -33l-43 26q15 27 23.5 38t29 22t50.5 11q29 0 67.5 -19t56.5 -19 q35 0 51 35z" />
<glyph unicode="&#xc4;" horiz-adv-x="571" d="M-2 0l254 658l61 13l204 -561l50 -110h-109l-63 172h-245l-65 -172h-87zM265 477l-88 -229h193l-83 230l-10 39zM243 782q0 -23 -15 -39t-35 -16t-35 16t-15 39q0 22 15 38.5t35 16.5t35 -16.5t15 -38.5zM427 782q0 -23 -15 -39t-35 -16t-35 16t-15 39q0 22 15 38.5 t35 16.5t35 -16.5t15 -38.5z" />
<glyph unicode="&#xc5;" horiz-adv-x="571" d="M-2 0l254 658l61 13l204 -561l50 -110h-109l-63 172h-245l-65 -172h-87zM265 477l-88 -229h193l-83 230l-10 39zM376 791q0 -36 -27.5 -62t-63.5 -26t-62.5 26t-26.5 62t26.5 62t62.5 26t63.5 -26t27.5 -62zM339 792q0 21 -16 37t-37 16q-22 0 -37.5 -15.5t-15.5 -37.5 q0 -21 15.5 -39t37.5 -18q24 0 38.5 17.5t14.5 39.5z" />
<glyph unicode="&#xc6;" horiz-adv-x="765" d="M377 0v174h-217l-83 -174h-83l320 658h392v-74h-239v-210h209l-20 -74h-189v-226h250l-20 -74h-320zM195 248h182v318l-7 47z" />
<glyph unicode="&#xc7;" horiz-adv-x="617" d="M573 588l-46 -68q-73 76 -168 76q-94 0 -156 -81.5t-62 -189.5q0 -116 68 -188.5t157 -72.5q82 0 186 78l8 6l22 -74q-4 -4 -11 -9.5t-31 -20.5t-49.5 -26.5t-64 -21t-76.5 -9.5q-124 0 -214.5 87.5t-90.5 240.5q0 152 92.5 253.5t225.5 101.5q120 0 210 -82zM312 -58 l10 51h29q10 -13 40 -31.5t51 -39t21 -49.5q0 -52 -34 -80t-82 -28q-53 0 -96 31l24 49q23 -23 70 -23q57 0 57 37q0 14 -14 27t-39 28.5t-37 27.5z" />
<glyph unicode="&#xc8;" d="M112 0v566l-13 92h342v-74h-239v-210h209l-20 -74h-189v-226h250l-20 -74h-320zM116 875h110l124 -143l-55 -20z" />
<glyph unicode="&#xc9;" d="M112 0v566l-13 92h342v-74h-239v-210h209l-20 -74h-189v-226h250l-20 -74h-320zM324 875h110l-179 -163l-55 20z" />
<glyph unicode="&#xca;" d="M112 0v566l-13 92h342v-74h-239v-210h209l-20 -74h-189v-226h250l-20 -74h-320zM243 875h62l124 -143l-53 -20l-103 93l-101 -93l-53 20z" />
<glyph unicode="&#xcb;" d="M112 0v566l-13 92h342v-74h-239v-210h209l-20 -74h-189v-226h250l-20 -74h-320zM232 782q0 -23 -15 -39t-35 -16t-35 16t-15 39q0 22 15 38.5t35 16.5t35 -16.5t15 -38.5zM416 782q0 -23 -15 -39t-35 -16t-35 16t-15 39q0 22 15 38.5t35 16.5t35 -16.5t15 -38.5z" />
<glyph unicode="&#xcc;" horiz-adv-x="312" d="M202 658v-583l10 -75h-100v566l-13 92h103zM1 875h110l124 -143l-55 -20z" />
<glyph unicode="&#xcd;" horiz-adv-x="312" d="M202 658v-583l10 -75h-100v566l-13 92h103zM209 875h110l-179 -163l-55 20z" />
<glyph unicode="&#xce;" horiz-adv-x="312" d="M202 658v-583l10 -75h-100v566l-13 92h103zM128 875h62l124 -143l-53 -20l-103 93l-101 -93l-53 20z" />
<glyph unicode="&#xcf;" horiz-adv-x="312" d="M202 658v-583l10 -75h-100v566l-13 92h103zM117 782q0 -23 -15 -39t-35 -16t-35 16t-15 39q0 22 15 38.5t35 16.5t35 -16.5t15 -38.5zM301 782q0 -23 -15 -39t-35 -16t-35 16t-15 39q0 22 15 38.5t35 16.5t35 -16.5t15 -38.5z" />
<glyph unicode="&#xd0;" horiz-adv-x="679" d="M40 374h83v192l-13 92h249q114 0 194.5 -84t80.5 -241q0 -143 -84 -238t-221 -95h-206v300h-83v74zM341 595h-128v-221h134l-20 -74h-114v-233h128q84 0 140 77t56 183q0 108 -56 188t-140 80z" />
<glyph unicode="&#xd1;" horiz-adv-x="748" d="M647 658v-583l6 -75h-47l-375 420l-43 65v-410l10 -75h-92v566l-13 92h61l367 -416l44 -65v389l-13 92h95zM489 823l43 -26q-15 -27 -23.5 -38t-29 -22t-50.5 -11q-33 0 -71 18t-54 18q-28 0 -50 -33l-43 26q15 27 23.5 38t29 22t50.5 11q29 0 67.5 -19t56.5 -19 q35 0 51 35z" />
<glyph unicode="&#xd2;" horiz-adv-x="680" d="M346 670q140 0 214.5 -92.5t74.5 -242.5q0 -146 -87 -247t-215 -101q-133 0 -210 96t-77 240q0 146 86 246.5t214 100.5zM144 329q0 -114 55 -192t142 -78t141.5 78t54.5 192t-54.5 192t-141.5 78t-142 -78t-55 -192zM181 875h110l124 -143l-55 -20z" />
<glyph unicode="&#xd3;" horiz-adv-x="680" d="M346 670q140 0 214.5 -92.5t74.5 -242.5q0 -146 -87 -247t-215 -101q-133 0 -210 96t-77 240q0 146 86 246.5t214 100.5zM144 329q0 -114 55 -192t142 -78t141.5 78t54.5 192t-54.5 192t-141.5 78t-142 -78t-55 -192zM389 875h110l-179 -163l-55 20z" />
<glyph unicode="&#xd4;" horiz-adv-x="680" d="M346 670q140 0 214.5 -92.5t74.5 -242.5q0 -146 -87 -247t-215 -101q-133 0 -210 96t-77 240q0 146 86 246.5t214 100.5zM144 329q0 -114 55 -192t142 -78t141.5 78t54.5 192t-54.5 192t-141.5 78t-142 -78t-55 -192zM308 875h62l124 -143l-53 -20l-103 93l-101 -93 l-53 20z" />
<glyph unicode="&#xd5;" horiz-adv-x="680" d="M346 670q140 0 214.5 -92.5t74.5 -242.5q0 -146 -87 -247t-215 -101q-133 0 -210 96t-77 240q0 146 86 246.5t214 100.5zM144 329q0 -114 55 -192t142 -78t141.5 78t54.5 192t-54.5 192t-141.5 78t-142 -78t-55 -192zM457 838l43 -26q-15 -27 -23.5 -38t-29 -22 t-50.5 -11q-33 0 -71 18t-54 18q-28 0 -50 -33l-43 26q15 27 23.5 38t29 22t50.5 11q29 0 67.5 -19t56.5 -19q35 0 51 35z" />
<glyph unicode="&#xd6;" horiz-adv-x="680" d="M346 670q140 0 214.5 -92.5t74.5 -242.5q0 -146 -87 -247t-215 -101q-133 0 -210 96t-77 240q0 146 86 246.5t214 100.5zM144 329q0 -114 55 -192t142 -78t141.5 78t54.5 192t-54.5 192t-141.5 78t-142 -78t-55 -192zM297 782q0 -23 -15 -39t-35 -16t-35 16t-15 39 q0 22 15 38.5t35 16.5t35 -16.5t15 -38.5zM481 782q0 -23 -15 -39t-35 -16t-35 16t-15 39q0 22 15 38.5t35 16.5t35 -16.5t15 -38.5z" />
<glyph unicode="&#xd7;" horiz-adv-x="429" d="M342 76l-125 124l-122 -122l-52 52l122 123l-127 126l63 36l114 -113l126 127l38 -67l-112 -112l124 -125z" />
<glyph unicode="&#xd8;" horiz-adv-x="680" d="M346 670q24 0 45 -3l21 88h57l-24 -100q92 -30 141 -115.5t49 -204.5q0 -146 -87 -246.5t-215 -100.5q-27 0 -47 4l-20 -83h-54l22 95q-89 32 -138.5 118.5t-49.5 200.5q0 146 86 246.5t214 100.5zM537 329q0 82 -29.5 148t-81.5 98l-123 -511q16 -4 38 -4 q87 0 141.5 77.5t54.5 191.5zM144 329q0 -81 29 -146.5t80 -97.5l121 510q-15 4 -33 4q-87 0 -142 -78t-55 -192z" />
<glyph unicode="&#xd9;" horiz-adv-x="727" d="M537 252v314l-13 92h97v-395q0 -123 -74 -199.5t-196 -76.5q-56 0 -99.5 17t-68.5 45t-41.5 56.5t-22.5 60.5t-8 46.5t-2 24.5v329l-13 92h103v-413q0 -80 48.5 -132.5t121.5 -52.5t120.5 55.5t47.5 136.5zM201 875h110l124 -143l-55 -20z" />
<glyph unicode="&#xda;" horiz-adv-x="727" d="M537 252v314l-13 92h97v-395q0 -123 -74 -199.5t-196 -76.5q-56 0 -99.5 17t-68.5 45t-41.5 56.5t-22.5 60.5t-8 46.5t-2 24.5v329l-13 92h103v-413q0 -80 48.5 -132.5t121.5 -52.5t120.5 55.5t47.5 136.5zM409 875h110l-179 -163l-55 20z" />
<glyph unicode="&#xdb;" horiz-adv-x="727" d="M537 252v314l-13 92h97v-395q0 -123 -74 -199.5t-196 -76.5q-56 0 -99.5 17t-68.5 45t-41.5 56.5t-22.5 60.5t-8 46.5t-2 24.5v329l-13 92h103v-413q0 -80 48.5 -132.5t121.5 -52.5t120.5 55.5t47.5 136.5zM328 875h62l124 -143l-53 -20l-103 93l-101 -93l-53 20z" />
<glyph unicode="&#xdc;" horiz-adv-x="727" d="M537 252v314l-13 92h97v-395q0 -123 -74 -199.5t-196 -76.5q-56 0 -99.5 17t-68.5 45t-41.5 56.5t-22.5 60.5t-8 46.5t-2 24.5v329l-13 92h103v-413q0 -80 48.5 -132.5t121.5 -52.5t120.5 55.5t47.5 136.5zM317 782q0 -23 -15 -39t-35 -16t-35 16t-15 39q0 22 15 38.5 t35 16.5t35 -16.5t15 -38.5zM501 782q0 -23 -15 -39t-35 -16t-35 16t-15 39q0 22 15 38.5t35 16.5t35 -16.5t15 -38.5z" />
<glyph unicode="&#xdd;" horiz-adv-x="509" d="M303 290v-215l10 -75h-100v290l-155 297l-52 71h116l130 -247l14 -40l19 42l131 245h90zM316 875h110l-179 -163l-55 20z" />
<glyph unicode="&#xde;" horiz-adv-x="546" d="M99 746l103 10v-158h83q90 0 153 -51t63 -147q0 -87 -72 -150.5t-178 -63.5h-49v-111l10 -75h-100v634zM202 260h65q56 0 97.5 41.5t41.5 98.5q0 59 -40 91.5t-99 32.5h-65v-264z" />
<glyph unicode="&#xdf;" horiz-adv-x="574" d="M257 80l3 22q57 -47 112 -47q88 0 88 71q0 27 -28 57.5t-62 54.5t-62 58.5t-28 69.5t19 68.5t41.5 56.5t41.5 57.5t19 69.5q0 63 -83 63q-59 0 -96 -35t-37 -83v-460l10 -103h-94v423h-61v68h61v64q0 49 21 89t53.5 63t67 35t65.5 12q43 0 81.5 -12t68 -42.5t29.5 -75.5 q0 -34 -18 -69.5t-39.5 -59.5t-39.5 -51.5t-18 -47.5q0 -25 27.5 -56.5t60.5 -58t60.5 -63t27.5 -69.5q0 -74 -48.5 -118t-128.5 -44q-70 0 -120 38z" />
<glyph unicode="&#xe0;" horiz-adv-x="506" d="M113 364l-45 65q3 3 8 8.5t23 18.5t39 23t55 18.5t71 8.5q65 0 107.5 -31t42.5 -97v-265q1 -58 45 -113l-93 -13q-28 38 -29 82q-21 -32 -67.5 -57t-91.5 -25q-53 0 -91 35t-38 89q0 83 78.5 134t202.5 51v36q0 107 -75 107q-80 0 -135 -66zM215 59q30 0 63 20.5t52 41.5 v111q-191 -7 -191 -106q0 -27 19.5 -47t56.5 -20zM93 724h110l124 -143l-55 -20z" />
<glyph unicode="&#xe1;" horiz-adv-x="506" d="M113 364l-45 65q3 3 8 8.5t23 18.5t39 23t55 18.5t71 8.5q65 0 107.5 -31t42.5 -97v-265q1 -58 45 -113l-93 -13q-28 38 -29 82q-21 -32 -67.5 -57t-91.5 -25q-53 0 -91 35t-38 89q0 83 78.5 134t202.5 51v36q0 107 -75 107q-80 0 -135 -66zM215 59q30 0 63 20.5t52 41.5 v111q-191 -7 -191 -106q0 -27 19.5 -47t56.5 -20zM301 724h110l-179 -163l-55 20z" />
<glyph unicode="&#xe2;" horiz-adv-x="506" d="M113 364l-45 65q3 3 8 8.5t23 18.5t39 23t55 18.5t71 8.5q65 0 107.5 -31t42.5 -97v-265q1 -58 45 -113l-93 -13q-28 38 -29 82q-21 -32 -67.5 -57t-91.5 -25q-53 0 -91 35t-38 89q0 83 78.5 134t202.5 51v36q0 107 -75 107q-80 0 -135 -66zM215 59q30 0 63 20.5t52 41.5 v111q-191 -7 -191 -106q0 -27 19.5 -47t56.5 -20zM220 724h62l124 -143l-53 -20l-103 93l-101 -93l-53 20z" />
<glyph unicode="&#xe3;" horiz-adv-x="506" d="M113 364l-45 65q3 3 8 8.5t23 18.5t39 23t55 18.5t71 8.5q65 0 107.5 -31t42.5 -97v-265q1 -58 45 -113l-93 -13q-28 38 -29 82q-21 -32 -67.5 -57t-91.5 -25q-53 0 -91 35t-38 89q0 83 78.5 134t202.5 51v36q0 107 -75 107q-80 0 -135 -66zM215 59q30 0 63 20.5t52 41.5 v111q-191 -7 -191 -106q0 -27 19.5 -47t56.5 -20zM369 672l43 -26q-15 -27 -23.5 -38t-29 -22t-50.5 -11q-33 0 -71 18t-54 18q-28 0 -50 -33l-43 26q15 27 23.5 38t29 22t50.5 11q29 0 67.5 -19t56.5 -19q35 0 51 35z" />
<glyph unicode="&#xe4;" horiz-adv-x="506" d="M113 364l-45 65q3 3 8 8.5t23 18.5t39 23t55 18.5t71 8.5q65 0 107.5 -31t42.5 -97v-265q1 -58 45 -113l-93 -13q-28 38 -29 82q-21 -32 -67.5 -57t-91.5 -25q-53 0 -91 35t-38 89q0 83 78.5 134t202.5 51v36q0 107 -75 107q-80 0 -135 -66zM215 59q30 0 63 20.5t52 41.5 v111q-191 -7 -191 -106q0 -27 19.5 -47t56.5 -20zM209 631q0 -23 -15 -39t-35 -16t-35 16t-15 39q0 22 15 38.5t35 16.5t35 -16.5t15 -38.5zM393 631q0 -23 -15 -39t-35 -16t-35 16t-15 39q0 22 15 38.5t35 16.5t35 -16.5t15 -38.5z" />
<glyph unicode="&#xe5;" horiz-adv-x="506" d="M113 364l-45 65q3 3 8 8.5t23 18.5t39 23t55 18.5t71 8.5q65 0 107.5 -31t42.5 -97v-265q1 -58 45 -113l-93 -13q-28 38 -29 82q-21 -32 -67.5 -57t-91.5 -25q-53 0 -91 35t-38 89q0 83 78.5 134t202.5 51v36q0 107 -75 107q-80 0 -135 -66zM215 59q30 0 63 20.5t52 41.5 v111q-191 -7 -191 -106q0 -27 19.5 -47t56.5 -20zM342 640q0 -36 -27.5 -62t-63.5 -26t-62.5 26t-26.5 62t26.5 62t62.5 26t63.5 -26t27.5 -62zM305 641q0 21 -16 37t-37 16q-22 0 -37.5 -15.5t-15.5 -37.5q0 -21 15.5 -39t37.5 -18q24 0 38.5 17.5t14.5 39.5z" />
<glyph unicode="&#xe6;" horiz-adv-x="782" d="M550 507q45 0 78 -19t50 -44.5t27.5 -61.5t13 -59t2.5 -48l-24 -27l-276 -9q2 -74 36.5 -124.5t101.5 -50.5q37 0 77 18q40 16 61 34l21 18l14 -77q-8 -8 -23.5 -19.5t-66.5 -31t-107 -19.5q-114 0 -170 99q-7 -11 -20 -24.5t-35.5 -32t-55.5 -30.5t-68 -12 q-66 0 -101.5 38t-35.5 91q0 76 75 127.5t206 52.5v36q0 107 -73 107q-25 0 -49.5 -7.5t-41 -18.5t-29.5 -22t-19 -19l-6 -7l-44 64q3 3 8 8.5t23 18.5t39 23t55.5 18.5t72.5 8.5q96 0 134 -59q58 60 150 60zM217 59q26 0 57.5 19.5t50.5 38.5l19 19q-14 45 -14 99 q-13 0 -37 -3.5t-62.5 -12.5t-65 -31.5t-26.5 -54.5q0 -29 20 -51.5t58 -22.5zM538 442q-84 0 -112 -142l201 7q-3 53 -23.5 94t-65.5 41z" />
<glyph unicode="&#xe7;" horiz-adv-x="480" d="M443 437l-53 -67q-47 67 -112 67t-103 -54.5t-38 -129.5q0 -77 36.5 -133t105.5 -56q77 0 145 63l5 5l14 -76q-3 -3 -8 -7.5t-22.5 -16.5t-37.5 -21t-52.5 -16.5t-67.5 -7.5q-93 0 -149.5 75.5t-56.5 174.5q0 113 61 191.5t170 78.5q105 0 163 -70zM230 -58l10 51h29 q10 -13 40 -31.5t51 -39t21 -49.5q0 -52 -34 -80t-82 -28q-53 0 -96 31l24 49q23 -23 70 -23q57 0 57 37q0 14 -14 27t-39 28.5t-37 27.5z" />
<glyph unicode="&#xe8;" horiz-adv-x="492" d="M272 507q162 0 170 -235l-23 -26h-279q2 -75 37.5 -128.5t103.5 -53.5q38 0 77 17q40 17 60 34l20 17l14 -76q-3 -3 -8.5 -7.5t-24.5 -16.5t-40 -21t-54 -16.5t-68 -7.5q-93 0 -149.5 75.5t-56.5 174.5q0 115 56.5 192.5t164.5 77.5zM260 442q-89 0 -115 -132h206 q-3 51 -24 91.5t-67 40.5zM106 724h110l124 -143l-55 -20z" />
<glyph unicode="&#xe9;" horiz-adv-x="492" d="M272 507q162 0 170 -235l-23 -26h-279q2 -75 37.5 -128.5t103.5 -53.5q38 0 77 17q40 17 60 34l20 17l14 -76q-3 -3 -8.5 -7.5t-24.5 -16.5t-40 -21t-54 -16.5t-68 -7.5q-93 0 -149.5 75.5t-56.5 174.5q0 115 56.5 192.5t164.5 77.5zM260 442q-89 0 -115 -132h206 q-3 51 -24 91.5t-67 40.5zM314 724h110l-179 -163l-55 20z" />
<glyph unicode="&#xea;" horiz-adv-x="492" d="M272 507q162 0 170 -235l-23 -26h-279q2 -75 37.5 -128.5t103.5 -53.5q38 0 77 17q40 17 60 34l20 17l14 -76q-3 -3 -8.5 -7.5t-24.5 -16.5t-40 -21t-54 -16.5t-68 -7.5q-93 0 -149.5 75.5t-56.5 174.5q0 115 56.5 192.5t164.5 77.5zM260 442q-89 0 -115 -132h206 q-3 51 -24 91.5t-67 40.5zM233 724h62l124 -143l-53 -20l-103 93l-101 -93l-53 20z" />
<glyph unicode="&#xeb;" horiz-adv-x="492" d="M272 507q162 0 170 -235l-23 -26h-279q2 -75 37.5 -128.5t103.5 -53.5q38 0 77 17q40 17 60 34l20 17l14 -76q-3 -3 -8.5 -7.5t-24.5 -16.5t-40 -21t-54 -16.5t-68 -7.5q-93 0 -149.5 75.5t-56.5 174.5q0 115 56.5 192.5t164.5 77.5zM260 442q-89 0 -115 -132h206 q-3 51 -24 91.5t-67 40.5zM222 631q0 -23 -15 -39t-35 -16t-35 16t-15 39q0 22 15 38.5t35 16.5t35 -16.5t15 -38.5zM406 631q0 -23 -15 -39t-35 -16t-35 16t-15 39q0 22 15 38.5t35 16.5t35 -16.5t15 -38.5z" />
<glyph unicode="&#xec;" horiz-adv-x="274" d="M179 503v-428l10 -75h-94v400l-13 92zM-21 724h110l124 -143l-55 -20z" />
<glyph unicode="&#xed;" horiz-adv-x="274" d="M179 503v-428l10 -75h-94v400l-13 92zM187 724h110l-179 -163l-55 20z" />
<glyph unicode="&#xee;" horiz-adv-x="274" d="M179 503v-428l10 -75h-94v400l-13 92zM106 724h62l124 -143l-53 -20l-103 93l-101 -93l-53 20z" />
<glyph unicode="&#xef;" horiz-adv-x="274" d="M179 503v-428l10 -75h-94v400l-13 92zM95 631q0 -23 -15 -39t-35 -16t-35 16t-15 39q0 22 15 38.5t35 16.5t35 -16.5t15 -38.5zM279 631q0 -23 -15 -39t-35 -16t-35 16t-15 39q0 22 15 38.5t35 16.5t35 -16.5t15 -38.5z" />
<glyph unicode="&#xf0;" horiz-adv-x="548" d="M153 600l111 48q-58 44 -109 44l39 63q82 -3 155 -69q21 8 57 24l50 22l1 -50l-75 -33q56 -68 88.5 -164.5t32.5 -192.5q0 -132 -61 -218.5t-182 -86.5q-58 0 -100.5 25.5t-63 57.5t-32 73.5t-13.5 61.5t-2 33q0 109 63.5 188t152.5 79q66 0 125 -46q-36 96 -88 154 l-130 -56zM141 247q0 -82 37 -139t98 -57q60 0 96.5 62t36.5 194q0 47 -8 81q-23 22 -59.5 38.5t-65.5 16.5q-61 0 -98 -57t-37 -139z" />
<glyph unicode="&#xf1;" horiz-adv-x="581" d="M499 0h-94v288q0 76 -14.5 108t-58.5 32q-47 0 -85 -18q-38 -20 -53 -38l-15 -18v-279l10 -75h-94v400l-13 92l97 11v-75q32 35 81 56.5t98 21.5q54 0 92.5 -30.5t38.5 -87.5v-315zM418 672l43 -26q-15 -27 -23.5 -38t-29 -22t-50.5 -11q-33 0 -71 18t-54 18 q-28 0 -50 -33l-43 26q15 27 23.5 38t29 22t50.5 11q29 0 67.5 -19t56.5 -19q35 0 51 35z" />
<glyph unicode="&#xf2;" horiz-adv-x="553" d="M49 238q0 118 66.5 193.5t178.5 75.5q94 0 152 -63.5t58 -186.5q0 -113 -66.5 -191.5t-177.5 -78.5q-58 0 -100.5 25.5t-63 57.5t-32 73.5t-13.5 61.5t-2 33zM141 247q0 -81 37 -137t98 -56t98.5 56t37.5 137t-37.5 137t-98.5 56t-98 -56t-37 -137zM118 724h110l124 -143 l-55 -20z" />
<glyph unicode="&#xf3;" horiz-adv-x="553" d="M49 238q0 118 66.5 193.5t178.5 75.5q94 0 152 -63.5t58 -186.5q0 -113 -66.5 -191.5t-177.5 -78.5q-58 0 -100.5 25.5t-63 57.5t-32 73.5t-13.5 61.5t-2 33zM141 247q0 -81 37 -137t98 -56t98.5 56t37.5 137t-37.5 137t-98.5 56t-98 -56t-37 -137zM326 724h110 l-179 -163l-55 20z" />
<glyph unicode="&#xf4;" horiz-adv-x="553" d="M49 238q0 118 66.5 193.5t178.5 75.5q94 0 152 -63.5t58 -186.5q0 -113 -66.5 -191.5t-177.5 -78.5q-58 0 -100.5 25.5t-63 57.5t-32 73.5t-13.5 61.5t-2 33zM141 247q0 -81 37 -137t98 -56t98.5 56t37.5 137t-37.5 137t-98.5 56t-98 -56t-37 -137zM245 724h62l124 -143 l-53 -20l-103 93l-101 -93l-53 20z" />
<glyph unicode="&#xf5;" horiz-adv-x="553" d="M49 238q0 118 66.5 193.5t178.5 75.5q94 0 152 -63.5t58 -186.5q0 -113 -66.5 -191.5t-177.5 -78.5q-58 0 -100.5 25.5t-63 57.5t-32 73.5t-13.5 61.5t-2 33zM141 247q0 -81 37 -137t98 -56t98.5 56t37.5 137t-37.5 137t-98.5 56t-98 -56t-37 -137zM394 672l43 -26 q-15 -27 -23.5 -38t-29 -22t-50.5 -11q-33 0 -71 18t-54 18q-28 0 -50 -33l-43 26q15 27 23.5 38t29 22t50.5 11q29 0 67.5 -19t56.5 -19q35 0 51 35z" />
<glyph unicode="&#xf6;" horiz-adv-x="553" d="M49 238q0 118 66.5 193.5t178.5 75.5q94 0 152 -63.5t58 -186.5q0 -113 -66.5 -191.5t-177.5 -78.5q-58 0 -100.5 25.5t-63 57.5t-32 73.5t-13.5 61.5t-2 33zM141 247q0 -81 37 -137t98 -56t98.5 56t37.5 137t-37.5 137t-98.5 56t-98 -56t-37 -137zM234 631 q0 -23 -15 -39t-35 -16t-35 16t-15 39q0 22 15 38.5t35 16.5t35 -16.5t15 -38.5zM418 631q0 -23 -15 -39t-35 -16t-35 16t-15 39q0 22 15 38.5t35 16.5t35 -16.5t15 -38.5z" />
<glyph unicode="&#xf7;" horiz-adv-x="473" d="M87 285h310l-20 -69h-290v69zM295 407q0 -26 -17.5 -44.5t-42.5 -18.5t-42.5 18.5t-17.5 44.5q0 25 17.5 43t42.5 18t42.5 -18t17.5 -43zM295 105q0 -26 -17.5 -44.5t-42.5 -18.5t-42.5 18.5t-17.5 44.5q0 25 17.5 43t42.5 18t42.5 -18t17.5 -43z" />
<glyph unicode="&#xf8;" horiz-adv-x="553" d="M47 238q0 118 67 193.5t180 75.5q4 0 11 -0.5t11 -0.5l36 151h57l-39 -162q63 -22 99.5 -82t36.5 -156q0 -113 -67 -191.5t-179 -78.5q-2 0 -6 0.5t-6 0.5l-37 -155h-54l38 163q-40 12 -70 40.5t-44.5 58t-22.5 65t-9.5 51.5t-1.5 27zM143 247q0 -57 18.5 -104.5 t51.5 -71.5l87 369q-12 3 -24 3q-60 0 -96.5 -57t-36.5 -139zM409 247q0 110 -59 166l-87 -362h13q60 0 96.5 57t36.5 139z" />
<glyph unicode="&#xf9;" horiz-adv-x="575" d="M407 74q-29 -37 -82.5 -62t-103.5 -25q-54 0 -92.5 30.5t-38.5 87.5v295l-13 92l97 11v-298q0 -76 14.5 -108t58.5 -32q91 0 146 66l7 9v260l-13 92l97 11v-390q1 -58 45 -113l-93 -13q-29 41 -29 87zM129 724h110l124 -143l-55 -20z" />
<glyph unicode="&#xfa;" horiz-adv-x="575" d="M407 74q-29 -37 -82.5 -62t-103.5 -25q-54 0 -92.5 30.5t-38.5 87.5v295l-13 92l97 11v-298q0 -76 14.5 -108t58.5 -32q91 0 146 66l7 9v260l-13 92l97 11v-390q1 -58 45 -113l-93 -13q-29 41 -29 87zM337 724h110l-179 -163l-55 20z" />
<glyph unicode="&#xfb;" horiz-adv-x="575" d="M407 74q-29 -37 -82.5 -62t-103.5 -25q-54 0 -92.5 30.5t-38.5 87.5v295l-13 92l97 11v-298q0 -76 14.5 -108t58.5 -32q91 0 146 66l7 9v260l-13 92l97 11v-390q1 -58 45 -113l-93 -13q-29 41 -29 87zM256 724h62l124 -143l-53 -20l-103 93l-101 -93l-53 20z" />
<glyph unicode="&#xfc;" horiz-adv-x="575" d="M407 74q-29 -37 -82.5 -62t-103.5 -25q-54 0 -92.5 30.5t-38.5 87.5v295l-13 92l97 11v-298q0 -76 14.5 -108t58.5 -32q91 0 146 66l7 9v260l-13 92l97 11v-390q1 -58 45 -113l-93 -13q-29 41 -29 87zM245 631q0 -23 -15 -39t-35 -16t-35 16t-15 39q0 22 15 38.5t35 16.5 t35 -16.5t15 -38.5zM429 631q0 -23 -15 -39t-35 -16t-35 16t-15 39q0 22 15 38.5t35 16.5t35 -16.5t15 -38.5z" />
<glyph unicode="&#xfd;" horiz-adv-x="475" d="M469 505l-236 -589q-31 -77 -79 -118t-102 -41q-24 0 -52 11l-14 85q28 -10 51 -10q88 0 129 106l21 55l-137 405l-44 83l98 13l117 -333l13 -73l21 73l126 320zM307 724h110l-179 -163l-55 20z" />
<glyph unicode="&#xfe;" horiz-adv-x="553" d="M95 -240v893l-13 92l97 11v-316q69 65 142 65q76 0 128 -66.5t52 -181.5q0 -111 -69 -190.5t-175 -79.5q-22 0 -78 6v-158l10 -75h-94zM289 437q-57 0 -110 -68v-310l3 -1q2 0 8 -0.5t13 -1t16 -1.5t18 -1.5l18.5 -1t17.5 -0.5q55 0 95 58.5t40 137.5q0 84 -34.5 136.5 t-84.5 52.5z" />
<glyph unicode="&#xff;" horiz-adv-x="475" d="M469 505l-236 -589q-31 -77 -79 -118t-102 -41q-24 0 -52 11l-14 85q28 -10 51 -10q88 0 129 106l21 55l-137 405l-44 83l98 13l117 -333l13 -73l21 73l126 320zM215 631q0 -23 -15 -39t-35 -16t-35 16t-15 39q0 22 15 38.5t35 16.5t35 -16.5t15 -38.5zM399 631 q0 -23 -15 -39t-35 -16t-35 16t-15 39q0 22 15 38.5t35 16.5t35 -16.5t15 -38.5z" />
<glyph unicode="&#x152;" horiz-adv-x="836" d="M777 658v-74h-239v-210h209l-20 -74h-189v-226h250l-20 -74h-417q-137 0 -221 95t-84 238q0 157 80.5 241t194.5 84h456zM143 327q0 -106 56 -183t140 -77h109v528h-109q-84 0 -140 -80t-56 -188z" />
<glyph unicode="&#x153;" horiz-adv-x="856" d="M51 238q0 118 66.5 193.5t178.5 75.5q104 0 166 -78q58 78 165 78q37 0 66.5 -12.5t47 -35t29 -46t17 -53.5t7.5 -48.5t3 -39.5l-23 -26h-278q2 -75 37 -129t103 -54q38 0 77 17t59 34l21 17l14 -75q-3 -3 -8.5 -7.5t-24.5 -16.5t-40 -21t-54 -16.5t-68 -7.5 q-51 0 -94 24t-69 64q-78 -88 -187 -88q-58 0 -100.5 25.5t-63 57.5t-32 73.5t-13.5 61.5t-2 33zM143 247q0 -82 37 -139t98 -57t98 57t37 139t-37 139t-98 57t-98 -57t-37 -139zM615 442q-88 0 -114 -132h205q-3 51 -24 91.5t-67 40.5z" />
<glyph unicode="&#x178;" horiz-adv-x="509" d="M303 290v-215l10 -75h-100v290l-155 297l-52 71h116l130 -247l14 -40l19 42l131 245h90zM224 782q0 -23 -15 -39t-35 -16t-35 16t-15 39q0 22 15 38.5t35 16.5t35 -16.5t15 -38.5zM408 782q0 -23 -15 -39t-35 -16t-35 16t-15 39q0 22 15 38.5t35 16.5t35 -16.5t15 -38.5z " />
<glyph unicode="&#x2c6;" horiz-adv-x="402" d="M169 724h62l124 -143l-53 -20l-103 93l-101 -93l-53 20z" />
<glyph unicode="&#x2dc;" horiz-adv-x="380" d="M315 672l43 -26q-15 -27 -23.5 -38t-29 -22t-50.5 -11q-33 0 -71 18t-54 18q-28 0 -50 -33l-43 26q15 27 23.5 38t29 22t50.5 11q29 0 67.5 -19t56.5 -19q35 0 51 35z" />
<glyph unicode="&#x2000;" horiz-adv-x="439" />
<glyph unicode="&#x2001;" horiz-adv-x="879" />
<glyph unicode="&#x2002;" horiz-adv-x="439" />
<glyph unicode="&#x2003;" horiz-adv-x="879" />
<glyph unicode="&#x2004;" horiz-adv-x="293" />
<glyph unicode="&#x2005;" horiz-adv-x="219" />
<glyph unicode="&#x2006;" horiz-adv-x="146" />
<glyph unicode="&#x2007;" horiz-adv-x="146" />
<glyph unicode="&#x2008;" horiz-adv-x="109" />
<glyph unicode="&#x2009;" horiz-adv-x="175" />
<glyph unicode="&#x200a;" horiz-adv-x="48" />
<glyph unicode="&#x2010;" horiz-adv-x="302" d="M31 284h247l-20 -74h-227v74z" />
<glyph unicode="&#x2011;" horiz-adv-x="302" d="M31 284h247l-20 -74h-227v74z" />
<glyph unicode="&#x2013;" horiz-adv-x="452" d="M31 284h397l-20 -74h-377v74z" />
<glyph unicode="&#x2014;" horiz-adv-x="679" d="M31 284h623l-20 -74h-603v74z" />
<glyph unicode="&#x2018;" horiz-adv-x="270" d="M174 674l36 -35q-21 -20 -38.5 -48.5t-17.5 -51.5q0 -19 7.5 -29t28.5 -18q0 -31 -15 -51.5t-45 -20.5q-25 0 -42.5 18.5t-17.5 53.5q0 43 27 96t77 86z" />
<glyph unicode="&#x2019;" horiz-adv-x="270" d="M96 420l-36 35q21 20 38.5 48.5t17.5 51.5q0 19 -7.5 29t-28.5 18v9q0 27 16.5 45t43.5 18q25 0 42.5 -18.5t17.5 -53.5q0 -43 -27 -96t-77 -86z" />
<glyph unicode="&#x201a;" horiz-adv-x="270" d="M96 -141l-36 35q21 20 38.5 48.5t17.5 51.5q0 19 -7.5 29t-28.5 18v9q0 27 16.5 45t43.5 18q25 0 42.5 -18.5t17.5 -53.5q0 -43 -27 -96t-77 -86z" />
<glyph unicode="&#x201c;" horiz-adv-x="445" d="M174 674l36 -35q-21 -20 -38.5 -48.5t-17.5 -51.5q0 -19 7.5 -29t28.5 -18q0 -31 -15 -51.5t-45 -20.5q-25 0 -42.5 18.5t-17.5 53.5q0 43 27 96t77 86zM349 674l36 -35q-21 -20 -38.5 -48.5t-17.5 -51.5q0 -19 7.5 -29t28.5 -18q0 -31 -15 -51.5t-45 -20.5 q-25 0 -42.5 18.5t-17.5 53.5q0 43 27 96t77 86z" />
<glyph unicode="&#x201d;" horiz-adv-x="445" d="M96 420l-36 35q21 20 38.5 48.5t17.5 51.5q0 19 -7.5 29t-28.5 18v9q0 27 16.5 45t43.5 18q25 0 42.5 -18.5t17.5 -53.5q0 -43 -27 -96t-77 -86zM271 420l-36 35q21 20 38.5 48.5t17.5 51.5q0 19 -7.5 29t-28.5 18v9q0 27 16.5 45t43.5 18q25 0 42.5 -18.5t17.5 -53.5 q0 -43 -27 -96t-77 -86z" />
<glyph unicode="&#x201e;" horiz-adv-x="445" d="M96 -141l-36 35q21 20 38.5 48.5t17.5 51.5q0 19 -7.5 29t-28.5 18v9q0 27 16.5 45t43.5 18q25 0 42.5 -18.5t17.5 -53.5q0 -43 -27 -96t-77 -86zM271 -141l-36 35q21 20 38.5 48.5t17.5 51.5q0 19 -7.5 29t-28.5 18v9q0 27 16.5 45t43.5 18q25 0 42.5 -18.5t17.5 -53.5 q0 -43 -27 -96t-77 -86z" />
<glyph unicode="&#x2022;" horiz-adv-x="424" d="M211 379q55 0 94 -38.5t39 -93.5q0 -56 -39 -95t-94 -39q-56 0 -95 39t-39 95q0 55 39 93.5t95 38.5z" />
<glyph unicode="&#x2026;" horiz-adv-x="663" d="M184 41q0 -22 -15.5 -38t-37.5 -16q-23 0 -38.5 15.5t-15.5 38.5q0 22 16 37.5t38 15.5t37.5 -15.5t15.5 -37.5zM389 41q0 -22 -15.5 -38t-37.5 -16t-38 15.5t-16 38.5q0 22 16 37.5t38 15.5t37.5 -15.5t15.5 -37.5zM589 41q0 -22 -15.5 -38t-37.5 -16t-38 15.5t-16 38.5 q0 22 16 37.5t38 15.5t37.5 -15.5t15.5 -37.5z" />
<glyph unicode="&#x202f;" horiz-adv-x="175" />
<glyph unicode="&#x2039;" horiz-adv-x="372" d="M322 412l-173 -166l173 -164l-39 -64l-243 229l243 229z" />
<glyph unicode="&#x203a;" horiz-adv-x="372" d="M223 246l-173 166l39 64l243 -229l-243 -229l-39 64z" />
<glyph unicode="&#x205f;" horiz-adv-x="219" />
<glyph unicode="&#x20ac;" horiz-adv-x="601" d="M19 435h64q30 111 111.5 173t187.5 62q102 0 167 -42l-24 -74q-61 47 -151 47q-70 0 -126 -45t-82 -121h317l-23 -69h-309q-2 -22 -2 -41q0 -16 2 -42h282l-23 -69h-246q22 -74 74.5 -114t132.5 -40q96 0 164 56v-79q-79 -50 -182 -50q-100 0 -174.5 59t-99.5 168h-60v69 h50q-1 10 -1 32q0 17 2 51h-51v69z" />
<glyph unicode="&#x2122;" horiz-adv-x="802" d="M27 657v48h309v-48h-120v-282l6 -46h-77v328h-118zM564 361l-139 190v-176l6 -46h-67v322l-7 54h44l166 -235l149 235h43v-330l6 -46h-77v225z" />
</font>
</defs>
</svg>
